<svg width="468" height="70" viewBox="0 0 468 70" fill="none" xmlns="http://www.w3.org/2000/svg">
<rect width="70" height="70" rx="10" fill="#075624"/>
<rect x="78" width="70" height="70" rx="10" fill="#093318"/>
<rect x="156" width="70" height="70" rx="10" fill="#072010"/>
<path d="M237.076 48V19.7871H246.898C248.861 19.7871 250.575 20.0728 252.04 20.644C253.504 21.2153 254.647 22.1602 255.467 23.4785C256.288 24.7969 256.698 26.584 256.698 28.8398C256.698 31.0957 256.236 32.8828 255.313 34.2012C254.405 35.5195 253.131 36.457 251.49 37.0137C249.85 37.5703 247.938 37.8486 245.755 37.8486H242.987V48H237.076ZM242.987 36.5303L241.844 33.0146H245.25C246.437 33.0146 247.447 32.9194 248.282 32.729C249.117 32.5386 249.754 32.1431 250.194 31.5425C250.648 30.9272 250.875 30.0044 250.875 28.7739C250.875 27.7046 250.699 26.8696 250.348 26.269C249.996 25.6538 249.505 25.2217 248.875 24.9727C248.246 24.7236 247.499 24.5991 246.634 24.5991H241.844L242.987 21.0835V36.5303ZM259.884 48V43.1001H267.047L264.586 45.1875V22.5996L267.047 24.687H259.884V19.7871H275.177V24.687H267.882L270.475 22.5996V45.1875L267.882 43.1001H275.177V48H259.884ZM280.143 48V19.7871H286.053V46.7695L283.438 43.0342H296.183L296.82 48H280.143ZM300.621 48V19.7871H306.532V46.7695L303.917 43.0342H316.661L317.298 48H300.621ZM324.132 48.4614L318.749 47.5605L327.384 19.7871H334.547L343.028 47.5605L337.601 48.4614L335.272 40.2656L337.799 42.4629H323.89L326.439 40.3975L324.132 48.4614ZM326.593 39.7163L324.769 37.7388H336.832L335.074 39.7163L330.372 23.7642H331.383L326.593 39.7163ZM361.859 48.5493C361.361 47.6265 360.76 46.4912 360.057 45.1436C359.369 43.7812 358.673 42.375 357.97 40.9248C357.281 39.46 356.673 38.127 356.146 36.9258L358.739 37.6069C358.285 37.6802 357.728 37.7388 357.069 37.7827C356.424 37.8267 355.868 37.8486 355.399 37.8486H351.07L352.63 36.9478V48H346.72V19.7871H356.542C358.504 19.7871 360.218 20.0728 361.683 20.644C363.148 21.2153 364.291 22.1602 365.111 23.4785C365.931 24.7969 366.341 26.584 366.341 28.8398C366.341 31.1543 365.843 32.978 364.847 34.311C363.851 35.644 362.467 36.5815 360.694 37.1235L361.441 35.7832C361.808 36.5303 362.247 37.4092 362.76 38.4199C363.287 39.4307 363.844 40.4927 364.43 41.606C365.03 42.7046 365.616 43.7739 366.188 44.814C366.759 45.854 367.279 46.7695 367.748 47.5605L361.859 48.5493ZM352.63 34.2231L351.488 33.0146H354.894C356.08 33.0146 357.091 32.9194 357.926 32.729C358.761 32.5386 359.398 32.1431 359.837 31.5425C360.292 30.9272 360.519 30.0044 360.519 28.7739C360.519 27.7046 360.343 26.8696 359.991 26.269C359.64 25.6538 359.149 25.2217 358.519 24.9727C357.889 24.7236 357.142 24.5991 356.278 24.5991H351.488L352.63 23.0171V34.2231ZM371.769 48V19.7871H380.184C383.934 19.7871 386.629 20.3364 388.27 21.4351C389.925 22.5337 390.753 24.3281 390.753 26.8184C390.753 28.5908 390.423 29.9751 389.764 30.9712C389.105 31.9673 388.014 32.7144 386.49 33.2124C390.006 34.2524 391.764 36.5449 391.764 40.0898C391.764 41.9502 391.375 43.4663 390.599 44.6382C389.837 45.7954 388.636 46.645 386.996 47.187C385.37 47.729 383.238 48 380.602 48H371.769ZM377.679 46.9893L374.999 43.4297H381.261C382.359 43.4297 383.253 43.3052 383.941 43.0562C384.63 42.8071 385.135 42.397 385.458 41.8257C385.78 41.2544 385.941 40.4854 385.941 39.5186C385.941 38.2002 385.567 37.2261 384.82 36.5962C384.088 35.9517 382.989 35.6294 381.524 35.6294H374.999L377.679 33.6299V46.9893ZM377.679 32.7949L374.999 31.0591H381.151C382.469 31.0591 383.421 30.7954 384.007 30.2681C384.608 29.7261 384.908 28.8618 384.908 27.6753C384.908 26.4888 384.601 25.6392 383.985 25.1265C383.37 24.6138 382.389 24.3574 381.041 24.3574H374.999L377.679 20.7979V32.7949ZM406.31 48.3955C403.717 48.3955 401.6 47.8975 399.959 46.9014C398.333 45.9053 397.132 44.3306 396.356 42.1772C395.594 40.0093 395.213 37.1968 395.213 33.7397C395.213 30.2681 395.616 27.4775 396.422 25.3682C397.228 23.2588 398.451 21.7207 400.091 20.7539C401.732 19.7871 403.805 19.3037 406.31 19.3037C408.829 19.3037 410.902 19.7871 412.528 20.7539C414.168 21.7207 415.392 23.2588 416.197 25.3682C417.003 27.4775 417.406 30.2681 417.406 33.7397C417.406 37.1968 417.018 40.0093 416.241 42.1772C415.479 44.3306 414.286 45.9053 412.66 46.9014C411.034 47.8975 408.917 48.3955 406.31 48.3955ZM406.31 43.4077C407.628 43.4077 408.661 43.1001 409.408 42.4849C410.155 41.8696 410.689 40.8589 411.012 39.4526C411.334 38.0464 411.495 36.1641 411.495 33.8057C411.495 31.418 411.327 29.5356 410.99 28.1587C410.667 26.7671 410.125 25.7783 409.364 25.1924C408.617 24.5918 407.599 24.2915 406.31 24.2915C405.035 24.2915 404.017 24.5918 403.255 25.1924C402.494 25.7783 401.944 26.7671 401.607 28.1587C401.285 29.5356 401.124 31.418 401.124 33.8057C401.124 36.1641 401.285 38.0464 401.607 39.4526C401.93 40.8589 402.464 41.8696 403.211 42.4849C403.973 43.1001 405.006 43.4077 406.31 43.4077ZM425.953 48.4834L420.174 47.6265L428.392 32.9048L428.216 34.2231L420.328 20.0947L426.107 19.2158L433.006 32.3774H430.084L437.005 19.2158L442.828 20.0947L434.72 34.2451L434.544 32.9268L442.938 47.6265L437.181 48.4834L429.93 34.7725H433.182L425.953 48.4834ZM446.827 48V19.7871H455.177C457.374 19.7871 459.249 20.0508 460.802 20.5781C462.369 21.1055 463.636 21.9331 464.603 23.061C465.584 24.189 466.302 25.6465 466.756 27.4336C467.225 29.2061 467.459 31.3521 467.459 33.8716C467.459 36.2886 467.24 38.3833 466.8 40.1558C466.375 41.9282 465.687 43.4004 464.735 44.5723C463.783 45.7295 462.538 46.5938 461 47.165C459.476 47.7217 457.616 48 455.418 48H446.827ZM452.738 46.7695L448.651 43.1001H455.265C456.48 43.1001 457.491 42.9316 458.297 42.5947C459.117 42.2432 459.762 41.7012 460.23 40.9688C460.714 40.2363 461.051 39.2842 461.241 38.1123C461.446 36.9404 461.549 35.5269 461.549 33.8716C461.549 32.1724 461.439 30.7368 461.219 29.5649C461 28.3931 460.641 27.4482 460.143 26.7305C459.645 26.0127 458.978 25.4927 458.143 25.1704C457.308 24.8481 456.268 24.687 455.023 24.687H448.651L452.738 21.0176V46.7695Z" fill="white"/>
</svg>
