<svg width="473" height="70" viewBox="0 0 473 70" fill="none" xmlns="http://www.w3.org/2000/svg">
<rect width="70" height="70" rx="10" fill="#075624"/>
<rect x="78" width="70" height="70" rx="10" fill="#093318"/>
<rect x="156" width="70" height="70" rx="10" fill="#072010"/>
<g filter="url(#filter0_d_0_1)">
<mask id="path-4-outside-1_0_1" maskUnits="userSpaceOnUse" x="236" y="17" width="233" height="33" fill="black">
<rect fill="white" x="236" y="17" width="233" height="33"/>
<path d="M237.076 48V19.7871H246.898C248.861 19.7871 250.575 20.0728 252.04 20.644C253.504 21.2153 254.647 22.1602 255.467 23.4785C256.288 24.7969 256.698 26.584 256.698 28.8398C256.698 31.0957 256.236 32.8828 255.313 34.2012C254.405 35.5195 253.131 36.457 251.49 37.0137C249.85 37.5703 247.938 37.8486 245.755 37.8486H242.987V48H237.076ZM242.987 36.5303L241.844 33.0146H245.25C246.437 33.0146 247.447 32.9194 248.282 32.729C249.117 32.5386 249.754 32.1431 250.194 31.5425C250.648 30.9272 250.875 30.0044 250.875 28.7739C250.875 27.7046 250.699 26.8696 250.348 26.269C249.996 25.6538 249.505 25.2217 248.875 24.9727C248.246 24.7236 247.499 24.5991 246.634 24.5991H241.844L242.987 21.0835V36.5303ZM259.884 48V43.1001H267.047L264.586 45.1875V22.5996L267.047 24.687H259.884V19.7871H275.177V24.687H267.882L270.475 22.5996V45.1875L267.882 43.1001H275.177V48H259.884ZM280.143 48V19.7871H286.053V46.7695L283.438 43.0342H296.183L296.82 48H280.143ZM300.621 48V19.7871H306.532V46.7695L303.917 43.0342H316.661L317.298 48H300.621ZM324.132 48.4614L318.749 47.5605L327.384 19.7871H334.547L343.028 47.5605L337.601 48.4614L335.272 40.2656L337.799 42.4629H323.89L326.439 40.3975L324.132 48.4614ZM326.593 39.7163L324.769 37.7388H336.832L335.074 39.7163L330.372 23.7642H331.383L326.593 39.7163ZM361.859 48.5493C361.361 47.6265 360.76 46.4912 360.057 45.1436C359.369 43.7812 358.673 42.375 357.97 40.9248C357.281 39.46 356.673 38.127 356.146 36.9258L358.739 37.6069C358.285 37.6802 357.728 37.7388 357.069 37.7827C356.424 37.8267 355.868 37.8486 355.399 37.8486H351.07L352.63 36.9478V48H346.72V19.7871H356.542C358.504 19.7871 360.218 20.0728 361.683 20.644C363.148 21.2153 364.291 22.1602 365.111 23.4785C365.931 24.7969 366.341 26.584 366.341 28.8398C366.341 31.1543 365.843 32.978 364.847 34.311C363.851 35.644 362.467 36.5815 360.694 37.1235L361.441 35.7832C361.808 36.5303 362.247 37.4092 362.76 38.4199C363.287 39.4307 363.844 40.4927 364.43 41.606C365.03 42.7046 365.616 43.7739 366.188 44.814C366.759 45.854 367.279 46.7695 367.748 47.5605L361.859 48.5493ZM352.63 34.2231L351.488 33.0146H354.894C356.08 33.0146 357.091 32.9194 357.926 32.729C358.761 32.5386 359.398 32.1431 359.837 31.5425C360.292 30.9272 360.519 30.0044 360.519 28.7739C360.519 27.7046 360.343 26.8696 359.991 26.269C359.64 25.6538 359.149 25.2217 358.519 24.9727C357.889 24.7236 357.142 24.5991 356.278 24.5991H351.488L352.63 23.0171V34.2231ZM371.769 48V19.7871H380.184C383.934 19.7871 386.629 20.3364 388.27 21.4351C389.925 22.5337 390.753 24.3281 390.753 26.8184C390.753 28.5908 390.423 29.9751 389.764 30.9712C389.105 31.9673 388.014 32.7144 386.49 33.2124C390.006 34.2524 391.764 36.5449 391.764 40.0898C391.764 41.9502 391.375 43.4663 390.599 44.6382C389.837 45.7954 388.636 46.645 386.996 47.187C385.37 47.729 383.238 48 380.602 48H371.769ZM377.679 46.9893L374.999 43.4297H381.261C382.359 43.4297 383.253 43.3052 383.941 43.0562C384.63 42.8071 385.135 42.397 385.458 41.8257C385.78 41.2544 385.941 40.4854 385.941 39.5186C385.941 38.2002 385.567 37.2261 384.82 36.5962C384.088 35.9517 382.989 35.6294 381.524 35.6294H374.999L377.679 33.6299V46.9893ZM377.679 32.7949L374.999 31.0591H381.151C382.469 31.0591 383.421 30.7954 384.007 30.2681C384.608 29.7261 384.908 28.8618 384.908 27.6753C384.908 26.4888 384.601 25.6392 383.985 25.1265C383.37 24.6138 382.389 24.3574 381.041 24.3574H374.999L377.679 20.7979V32.7949ZM406.31 48.3955C403.717 48.3955 401.6 47.8975 399.959 46.9014C398.333 45.9053 397.132 44.3306 396.356 42.1772C395.594 40.0093 395.213 37.1968 395.213 33.7397C395.213 30.2681 395.616 27.4775 396.422 25.3682C397.228 23.2588 398.451 21.7207 400.091 20.7539C401.732 19.7871 403.805 19.3037 406.31 19.3037C408.829 19.3037 410.902 19.7871 412.528 20.7539C414.168 21.7207 415.392 23.2588 416.197 25.3682C417.003 27.4775 417.406 30.2681 417.406 33.7397C417.406 37.1968 417.018 40.0093 416.241 42.1772C415.479 44.3306 414.286 45.9053 412.66 46.9014C411.034 47.8975 408.917 48.3955 406.31 48.3955ZM406.31 43.4077C407.628 43.4077 408.661 43.1001 409.408 42.4849C410.155 41.8696 410.689 40.8589 411.012 39.4526C411.334 38.0464 411.495 36.1641 411.495 33.8057C411.495 31.418 411.327 29.5356 410.99 28.1587C410.667 26.7671 410.125 25.7783 409.364 25.1924C408.617 24.5918 407.599 24.2915 406.31 24.2915C405.035 24.2915 404.017 24.5918 403.255 25.1924C402.494 25.7783 401.944 26.7671 401.607 28.1587C401.285 29.5356 401.124 31.418 401.124 33.8057C401.124 36.1641 401.285 38.0464 401.607 39.4526C401.93 40.8589 402.464 41.8696 403.211 42.4849C403.973 43.1001 405.006 43.4077 406.31 43.4077ZM425.953 48.4834L420.174 47.6265L428.392 32.9048L428.216 34.2231L420.328 20.0947L426.107 19.2158L433.006 32.3774H430.084L437.005 19.2158L442.828 20.0947L434.72 34.2451L434.544 32.9268L442.938 47.6265L437.181 48.4834L429.93 34.7725H433.182L425.953 48.4834ZM446.827 48V19.7871H455.177C457.374 19.7871 459.249 20.0508 460.802 20.5781C462.369 21.1055 463.636 21.9331 464.603 23.061C465.584 24.189 466.302 25.6465 466.756 27.4336C467.225 29.2061 467.459 31.3521 467.459 33.8716C467.459 36.2886 467.24 38.3833 466.8 40.1558C466.375 41.9282 465.687 43.4004 464.735 44.5723C463.783 45.7295 462.538 46.5938 461 47.165C459.476 47.7217 457.616 48 455.418 48H446.827ZM452.738 46.7695L448.651 43.1001H455.265C456.48 43.1001 457.491 42.9316 458.297 42.5947C459.117 42.2432 459.762 41.7012 460.23 40.9688C460.714 40.2363 461.051 39.2842 461.241 38.1123C461.446 36.9404 461.549 35.5269 461.549 33.8716C461.549 32.1724 461.439 30.7368 461.219 29.5649C461 28.3931 460.641 27.4482 460.143 26.7305C459.645 26.0127 458.978 25.4927 458.143 25.1704C457.308 24.8481 456.268 24.687 455.023 24.687H448.651L452.738 21.0176V46.7695Z"/>
</mask>
<path d="M237.076 48V19.7871H246.898C248.861 19.7871 250.575 20.0728 252.04 20.644C253.504 21.2153 254.647 22.1602 255.467 23.4785C256.288 24.7969 256.698 26.584 256.698 28.8398C256.698 31.0957 256.236 32.8828 255.313 34.2012C254.405 35.5195 253.131 36.457 251.49 37.0137C249.85 37.5703 247.938 37.8486 245.755 37.8486H242.987V48H237.076ZM242.987 36.5303L241.844 33.0146H245.25C246.437 33.0146 247.447 32.9194 248.282 32.729C249.117 32.5386 249.754 32.1431 250.194 31.5425C250.648 30.9272 250.875 30.0044 250.875 28.7739C250.875 27.7046 250.699 26.8696 250.348 26.269C249.996 25.6538 249.505 25.2217 248.875 24.9727C248.246 24.7236 247.499 24.5991 246.634 24.5991H241.844L242.987 21.0835V36.5303ZM259.884 48V43.1001H267.047L264.586 45.1875V22.5996L267.047 24.687H259.884V19.7871H275.177V24.687H267.882L270.475 22.5996V45.1875L267.882 43.1001H275.177V48H259.884ZM280.143 48V19.7871H286.053V46.7695L283.438 43.0342H296.183L296.82 48H280.143ZM300.621 48V19.7871H306.532V46.7695L303.917 43.0342H316.661L317.298 48H300.621ZM324.132 48.4614L318.749 47.5605L327.384 19.7871H334.547L343.028 47.5605L337.601 48.4614L335.272 40.2656L337.799 42.4629H323.89L326.439 40.3975L324.132 48.4614ZM326.593 39.7163L324.769 37.7388H336.832L335.074 39.7163L330.372 23.7642H331.383L326.593 39.7163ZM361.859 48.5493C361.361 47.6265 360.76 46.4912 360.057 45.1436C359.369 43.7812 358.673 42.375 357.97 40.9248C357.281 39.46 356.673 38.127 356.146 36.9258L358.739 37.6069C358.285 37.6802 357.728 37.7388 357.069 37.7827C356.424 37.8267 355.868 37.8486 355.399 37.8486H351.07L352.63 36.9478V48H346.72V19.7871H356.542C358.504 19.7871 360.218 20.0728 361.683 20.644C363.148 21.2153 364.291 22.1602 365.111 23.4785C365.931 24.7969 366.341 26.584 366.341 28.8398C366.341 31.1543 365.843 32.978 364.847 34.311C363.851 35.644 362.467 36.5815 360.694 37.1235L361.441 35.7832C361.808 36.5303 362.247 37.4092 362.76 38.4199C363.287 39.4307 363.844 40.4927 364.43 41.606C365.03 42.7046 365.616 43.7739 366.188 44.814C366.759 45.854 367.279 46.7695 367.748 47.5605L361.859 48.5493ZM352.63 34.2231L351.488 33.0146H354.894C356.08 33.0146 357.091 32.9194 357.926 32.729C358.761 32.5386 359.398 32.1431 359.837 31.5425C360.292 30.9272 360.519 30.0044 360.519 28.7739C360.519 27.7046 360.343 26.8696 359.991 26.269C359.64 25.6538 359.149 25.2217 358.519 24.9727C357.889 24.7236 357.142 24.5991 356.278 24.5991H351.488L352.63 23.0171V34.2231ZM371.769 48V19.7871H380.184C383.934 19.7871 386.629 20.3364 388.27 21.4351C389.925 22.5337 390.753 24.3281 390.753 26.8184C390.753 28.5908 390.423 29.9751 389.764 30.9712C389.105 31.9673 388.014 32.7144 386.49 33.2124C390.006 34.2524 391.764 36.5449 391.764 40.0898C391.764 41.9502 391.375 43.4663 390.599 44.6382C389.837 45.7954 388.636 46.645 386.996 47.187C385.37 47.729 383.238 48 380.602 48H371.769ZM377.679 46.9893L374.999 43.4297H381.261C382.359 43.4297 383.253 43.3052 383.941 43.0562C384.63 42.8071 385.135 42.397 385.458 41.8257C385.78 41.2544 385.941 40.4854 385.941 39.5186C385.941 38.2002 385.567 37.2261 384.82 36.5962C384.088 35.9517 382.989 35.6294 381.524 35.6294H374.999L377.679 33.6299V46.9893ZM377.679 32.7949L374.999 31.0591H381.151C382.469 31.0591 383.421 30.7954 384.007 30.2681C384.608 29.7261 384.908 28.8618 384.908 27.6753C384.908 26.4888 384.601 25.6392 383.985 25.1265C383.37 24.6138 382.389 24.3574 381.041 24.3574H374.999L377.679 20.7979V32.7949ZM406.31 48.3955C403.717 48.3955 401.6 47.8975 399.959 46.9014C398.333 45.9053 397.132 44.3306 396.356 42.1772C395.594 40.0093 395.213 37.1968 395.213 33.7397C395.213 30.2681 395.616 27.4775 396.422 25.3682C397.228 23.2588 398.451 21.7207 400.091 20.7539C401.732 19.7871 403.805 19.3037 406.31 19.3037C408.829 19.3037 410.902 19.7871 412.528 20.7539C414.168 21.7207 415.392 23.2588 416.197 25.3682C417.003 27.4775 417.406 30.2681 417.406 33.7397C417.406 37.1968 417.018 40.0093 416.241 42.1772C415.479 44.3306 414.286 45.9053 412.66 46.9014C411.034 47.8975 408.917 48.3955 406.31 48.3955ZM406.31 43.4077C407.628 43.4077 408.661 43.1001 409.408 42.4849C410.155 41.8696 410.689 40.8589 411.012 39.4526C411.334 38.0464 411.495 36.1641 411.495 33.8057C411.495 31.418 411.327 29.5356 410.99 28.1587C410.667 26.7671 410.125 25.7783 409.364 25.1924C408.617 24.5918 407.599 24.2915 406.31 24.2915C405.035 24.2915 404.017 24.5918 403.255 25.1924C402.494 25.7783 401.944 26.7671 401.607 28.1587C401.285 29.5356 401.124 31.418 401.124 33.8057C401.124 36.1641 401.285 38.0464 401.607 39.4526C401.93 40.8589 402.464 41.8696 403.211 42.4849C403.973 43.1001 405.006 43.4077 406.31 43.4077ZM425.953 48.4834L420.174 47.6265L428.392 32.9048L428.216 34.2231L420.328 20.0947L426.107 19.2158L433.006 32.3774H430.084L437.005 19.2158L442.828 20.0947L434.72 34.2451L434.544 32.9268L442.938 47.6265L437.181 48.4834L429.93 34.7725H433.182L425.953 48.4834ZM446.827 48V19.7871H455.177C457.374 19.7871 459.249 20.0508 460.802 20.5781C462.369 21.1055 463.636 21.9331 464.603 23.061C465.584 24.189 466.302 25.6465 466.756 27.4336C467.225 29.2061 467.459 31.3521 467.459 33.8716C467.459 36.2886 467.24 38.3833 466.8 40.1558C466.375 41.9282 465.687 43.4004 464.735 44.5723C463.783 45.7295 462.538 46.5938 461 47.165C459.476 47.7217 457.616 48 455.418 48H446.827ZM452.738 46.7695L448.651 43.1001H455.265C456.48 43.1001 457.491 42.9316 458.297 42.5947C459.117 42.2432 459.762 41.7012 460.23 40.9688C460.714 40.2363 461.051 39.2842 461.241 38.1123C461.446 36.9404 461.549 35.5269 461.549 33.8716C461.549 32.1724 461.439 30.7368 461.219 29.5649C461 28.3931 460.641 27.4482 460.143 26.7305C459.645 26.0127 458.978 25.4927 458.143 25.1704C457.308 24.8481 456.268 24.687 455.023 24.687H448.651L452.738 21.0176V46.7695Z" fill="white"/>
<path d="M237.076 48H236.076V49H237.076V48ZM237.076 19.7871V18.7871H236.076V19.7871H237.076ZM255.313 34.2012L254.494 33.6277L254.49 33.6339L255.313 34.2012ZM242.987 37.8486V36.8486H241.987V37.8486H242.987ZM242.987 48V49H243.987V48H242.987ZM242.987 36.5303L242.036 36.8394L243.987 36.5303H242.987ZM241.844 33.0146V32.0146H240.468L240.893 33.3237L241.844 33.0146ZM250.194 31.5425L249.389 30.9486L249.387 30.952L250.194 31.5425ZM250.348 26.269L249.479 26.7652L249.485 26.7742L250.348 26.269ZM241.844 24.5991L240.893 24.29L240.468 25.5991H241.844V24.5991ZM242.987 21.0835H243.987L242.036 20.7744L242.987 21.0835ZM237.076 48H238.076V19.7871H237.076H236.076V48H237.076ZM237.076 19.7871V20.7871H246.898V19.7871V18.7871H237.076V19.7871ZM246.898 19.7871V20.7871C248.766 20.7871 250.352 21.0593 251.676 21.5757L252.04 20.644L252.403 19.7124C250.797 19.0863 248.955 18.7871 246.898 18.7871V19.7871ZM252.04 20.644L251.676 21.5757C252.943 22.0696 253.914 22.8743 254.618 24.0068L255.467 23.4785L256.316 22.9502C255.38 21.446 254.066 20.3611 252.403 19.7124L252.04 20.644ZM255.467 23.4785L254.618 24.0068C255.305 25.1103 255.698 26.6909 255.698 28.8398H256.698H257.698C257.698 26.477 257.27 24.4834 256.316 22.9502L255.467 23.4785ZM256.698 28.8398H255.698C255.698 30.9703 255.261 32.5327 254.494 33.6277L255.313 34.2012L256.133 34.7746C257.212 33.2329 257.698 31.2211 257.698 28.8398H256.698ZM255.313 34.2012L254.49 33.6339C253.714 34.7601 252.623 35.5732 251.169 36.0667L251.49 37.0137L251.812 37.9607C253.638 37.3408 255.096 36.279 256.137 34.7685L255.313 34.2012ZM251.49 37.0137L251.169 36.0667C249.655 36.5805 247.856 36.8486 245.755 36.8486V37.8486V38.8486C248.02 38.8486 250.045 38.5602 251.812 37.9607L251.49 37.0137ZM245.755 37.8486V36.8486H242.987V37.8486V38.8486H245.755V37.8486ZM242.987 37.8486H241.987V48H242.987H243.987V37.8486H242.987ZM242.987 48V47H237.076V48V49H242.987V48ZM242.987 36.5303L243.938 36.2212L242.795 32.7056L241.844 33.0146L240.893 33.3237L242.036 36.8394L242.987 36.5303ZM241.844 33.0146V34.0146H245.25V33.0146V32.0146H241.844V33.0146ZM245.25 33.0146V34.0146C246.485 34.0146 247.575 33.916 248.505 33.704L248.282 32.729L248.06 31.754C247.32 31.9228 246.388 32.0146 245.25 32.0146V33.0146ZM248.282 32.729L248.505 33.704C249.537 33.4686 250.398 32.957 251.001 32.133L250.194 31.5425L249.387 30.952C249.111 31.3292 248.698 31.6086 248.06 31.754L248.282 32.729ZM250.194 31.5425L250.998 32.1363C251.636 31.2727 251.875 30.0981 251.875 28.7739H250.875H249.875C249.875 29.9107 249.66 30.5818 249.389 30.9486L250.194 31.5425ZM250.875 28.7739H251.875C251.875 27.6145 251.688 26.5788 251.211 25.7639L250.348 26.269L249.485 26.7742C249.711 27.1605 249.875 27.7947 249.875 28.7739H250.875ZM250.348 26.269L251.216 25.7729C250.757 24.9702 250.095 24.3793 249.243 24.0427L248.875 24.9727L248.508 25.9026C248.916 26.064 249.235 26.3374 249.479 26.7652L250.348 26.269ZM248.875 24.9727L249.243 24.0427C248.469 23.7366 247.591 23.5991 246.634 23.5991V24.5991V25.5991C247.406 25.5991 248.022 25.7107 248.508 25.9026L248.875 24.9727ZM246.634 24.5991V23.5991H241.844V24.5991V25.5991H246.634V24.5991ZM241.844 24.5991L242.795 24.9082L243.938 21.3926L242.987 21.0835L242.036 20.7744L240.893 24.29L241.844 24.5991ZM242.987 21.0835H241.987V36.5303H242.987H243.987V21.0835H242.987ZM259.884 48H258.884V49H259.884V48ZM259.884 43.1001V42.1001H258.884V43.1001H259.884ZM267.047 43.1001L267.694 43.8627L269.772 42.1001H267.047V43.1001ZM264.586 45.1875H263.586V47.347L265.233 45.9501L264.586 45.1875ZM264.586 22.5996L265.233 21.837L263.586 20.4401V22.5996H264.586ZM267.047 24.687V25.687H269.772L267.694 23.9244L267.047 24.687ZM259.884 24.687H258.884V25.687H259.884V24.687ZM259.884 19.7871V18.7871H258.884V19.7871H259.884ZM275.177 19.7871H276.177V18.7871H275.177V19.7871ZM275.177 24.687V25.687H276.177V24.687H275.177ZM267.882 24.687L267.255 23.9081L265.045 25.687H267.882V24.687ZM270.475 22.5996H271.475V20.5107L269.848 21.8207L270.475 22.5996ZM270.475 45.1875L269.848 45.9664L271.475 47.2764V45.1875H270.475ZM267.882 43.1001V42.1001H265.045L267.255 43.879L267.882 43.1001ZM275.177 43.1001H276.177V42.1001H275.177V43.1001ZM275.177 48V49H276.177V48H275.177ZM259.884 48H260.884V43.1001H259.884H258.884V48H259.884ZM259.884 43.1001V44.1001H267.047V43.1001V42.1001H259.884V43.1001ZM267.047 43.1001L266.4 42.3375L263.939 44.4249L264.586 45.1875L265.233 45.9501L267.694 43.8627L267.047 43.1001ZM264.586 45.1875H265.586V22.5996H264.586H263.586V45.1875H264.586ZM264.586 22.5996L263.939 23.3622L266.4 25.4496L267.047 24.687L267.694 23.9244L265.233 21.837L264.586 22.5996ZM267.047 24.687V23.687H259.884V24.687V25.687H267.047V24.687ZM259.884 24.687H260.884V19.7871H259.884H258.884V24.687H259.884ZM259.884 19.7871V20.7871H275.177V19.7871V18.7871H259.884V19.7871ZM275.177 19.7871H274.177V24.687H275.177H276.177V19.7871H275.177ZM275.177 24.687V23.687H267.882V24.687V25.687H275.177V24.687ZM267.882 24.687L268.509 25.4659L271.102 23.3785L270.475 22.5996L269.848 21.8207L267.255 23.9081L267.882 24.687ZM270.475 22.5996H269.475V45.1875H270.475H271.475V22.5996H270.475ZM270.475 45.1875L271.102 44.4086L268.509 42.3212L267.882 43.1001L267.255 43.879L269.848 45.9664L270.475 45.1875ZM267.882 43.1001V44.1001H275.177V43.1001V42.1001H267.882V43.1001ZM275.177 43.1001H274.177V48H275.177H276.177V43.1001H275.177ZM275.177 48V47H259.884V48V49H275.177V48ZM280.143 48H279.143V49H280.143V48ZM280.143 19.7871V18.7871H279.143V19.7871H280.143ZM286.053 19.7871H287.053V18.7871H286.053V19.7871ZM286.053 46.7695L285.234 47.343L287.053 49.9419V46.7695H286.053ZM283.438 43.0342V42.0342H281.518L282.619 43.6076L283.438 43.0342ZM296.183 43.0342L297.174 42.9069L297.062 42.0342H296.183V43.0342ZM296.82 48V49H297.956L297.812 47.8727L296.82 48ZM280.143 48H281.143V19.7871H280.143H279.143V48H280.143ZM280.143 19.7871V20.7871H286.053V19.7871V18.7871H280.143V19.7871ZM286.053 19.7871H285.053V46.7695H286.053H287.053V19.7871H286.053ZM286.053 46.7695L286.872 46.1961L284.258 42.4607L283.438 43.0342L282.619 43.6076L285.234 47.343L286.053 46.7695ZM283.438 43.0342V44.0342H296.183V43.0342V42.0342H283.438V43.0342ZM296.183 43.0342L295.191 43.1615L295.828 48.1273L296.82 48L297.812 47.8727L297.174 42.9069L296.183 43.0342ZM296.82 48V47H280.143V48V49H296.82V48ZM300.621 48H299.621V49H300.621V48ZM300.621 19.7871V18.7871H299.621V19.7871H300.621ZM306.532 19.7871H307.532V18.7871H306.532V19.7871ZM306.532 46.7695L305.713 47.343L307.532 49.9419V46.7695H306.532ZM303.917 43.0342V42.0342H301.996L303.098 43.6076L303.917 43.0342ZM316.661 43.0342L317.653 42.9069L317.541 42.0342H316.661V43.0342ZM317.298 48V49H318.435L318.29 47.8727L317.298 48ZM300.621 48H301.621V19.7871H300.621H299.621V48H300.621ZM300.621 19.7871V20.7871H306.532V19.7871V18.7871H300.621V19.7871ZM306.532 19.7871H305.532V46.7695H306.532H307.532V19.7871H306.532ZM306.532 46.7695L307.351 46.1961L304.736 42.4607L303.917 43.0342L303.098 43.6076L305.713 47.343L306.532 46.7695ZM303.917 43.0342V44.0342H316.661V43.0342V42.0342H303.917V43.0342ZM316.661 43.0342L315.669 43.1615L316.306 48.1273L317.298 48L318.29 47.8727L317.653 42.9069L316.661 43.0342ZM317.298 48V47H300.621V48V49H317.298V48ZM324.132 48.4614L323.967 49.4477L324.848 49.5951L325.093 48.7365L324.132 48.4614ZM318.749 47.5605L317.794 47.2636L317.453 48.3577L318.583 48.5468L318.749 47.5605ZM327.384 19.7871V18.7871H326.647L326.429 19.4902L327.384 19.7871ZM334.547 19.7871L335.503 19.495L335.287 18.7871H334.547V19.7871ZM343.028 47.5605L343.192 48.547L344.318 48.3601L343.985 47.2685L343.028 47.5605ZM337.601 48.4614L336.639 48.7348L336.883 49.5942L337.765 49.4479L337.601 48.4614ZM335.272 40.2656L335.928 39.511L333.391 37.3048L334.31 40.539L335.272 40.2656ZM337.799 42.4629V43.4629H340.473L338.455 41.7083L337.799 42.4629ZM323.89 42.4629L323.261 41.686L321.068 43.4629H323.89V42.4629ZM326.439 40.3975L327.4 40.6725L328.272 37.6246L325.809 39.6205L326.439 40.3975ZM326.593 39.7163L325.858 40.3942L327.046 41.6831L327.551 40.0039L326.593 39.7163ZM324.769 37.7388V36.7388H322.486L324.034 38.4167L324.769 37.7388ZM336.832 37.7388L337.579 38.4031L339.059 36.7388H336.832V37.7388ZM335.074 39.7163L334.115 39.999L334.624 41.7274L335.822 40.3807L335.074 39.7163ZM330.372 23.7642V22.7642H329.035L329.413 24.0469L330.372 23.7642ZM331.383 23.7642L332.341 24.0518L332.727 22.7642H331.383V23.7642ZM324.132 48.4614L324.297 47.4751L318.914 46.5743L318.749 47.5605L318.583 48.5468L323.967 49.4477L324.132 48.4614ZM318.749 47.5605L319.703 47.8574L328.339 20.084L327.384 19.7871L326.429 19.4902L317.794 47.2636L318.749 47.5605ZM327.384 19.7871V20.7871H334.547V19.7871V18.7871H327.384V19.7871ZM334.547 19.7871L333.59 20.0792L342.072 47.8526L343.028 47.5605L343.985 47.2685L335.503 19.495L334.547 19.7871ZM343.028 47.5605L342.865 46.574L337.437 47.4749L337.601 48.4614L337.765 49.4479L343.192 48.547L343.028 47.5605ZM337.601 48.4614L338.563 48.1881L336.234 39.9923L335.272 40.2656L334.31 40.539L336.639 48.7348L337.601 48.4614ZM335.272 40.2656L334.616 41.0202L337.143 43.2175L337.799 42.4629L338.455 41.7083L335.928 39.511L335.272 40.2656ZM337.799 42.4629V41.4629H323.89V42.4629V43.4629H337.799V42.4629ZM323.89 42.4629L324.52 43.2398L327.069 41.1744L326.439 40.3975L325.809 39.6205L323.261 41.686L323.89 42.4629ZM326.439 40.3975L325.478 40.1224L323.17 48.1864L324.132 48.4614L325.093 48.7365L327.4 40.6725L326.439 40.3975ZM326.593 39.7163L327.328 39.0384L325.504 37.0608L324.769 37.7388L324.034 38.4167L325.858 40.3942L326.593 39.7163ZM324.769 37.7388V38.7388H336.832V37.7388V36.7388H324.769V37.7388ZM336.832 37.7388L336.085 37.0744L334.327 39.0519L335.074 39.7163L335.822 40.3807L337.579 38.4031L336.832 37.7388ZM335.074 39.7163L336.033 39.4336L331.331 23.4814L330.372 23.7642L329.413 24.0469L334.115 39.999L335.074 39.7163ZM330.372 23.7642V24.7642H331.383V23.7642V22.7642H330.372V23.7642ZM331.383 23.7642L330.425 23.4766L325.635 39.4287L326.593 39.7163L327.551 40.0039L332.341 24.0518L331.383 23.7642ZM361.859 48.5493L360.979 49.0242L361.319 49.654L362.024 49.5355L361.859 48.5493ZM360.057 45.1436L359.165 45.5946L359.171 45.6061L360.057 45.1436ZM357.97 40.9248L357.065 41.3502L357.07 41.3611L357.97 40.9248ZM356.146 36.9258L356.4 35.9586L354.398 35.4327L355.23 37.3278L356.146 36.9258ZM358.739 37.6069L358.898 38.5942L358.993 36.6398L358.739 37.6069ZM357.069 37.7827L357.002 36.7849L357.001 36.785L357.069 37.7827ZM351.07 37.8486L350.57 36.9827L347.339 38.8486H351.07V37.8486ZM352.63 36.9478H353.63V35.2155L352.13 36.0818L352.63 36.9478ZM352.63 48V49H353.63V48H352.63ZM346.72 48H345.72V49H346.72V48ZM346.72 19.7871V18.7871H345.72V19.7871H346.72ZM360.694 37.1235L359.821 36.6367L358.612 38.8061L360.987 38.0798L360.694 37.1235ZM361.441 35.7832L362.339 35.343L361.498 33.6272L360.568 35.2963L361.441 35.7832ZM362.76 38.4199L361.868 38.8723L361.873 38.8825L362.76 38.4199ZM364.43 41.606L363.545 42.0717L363.548 42.0787L363.552 42.0856L364.43 41.606ZM367.748 47.5605L367.913 48.5467L369.351 48.3053L368.608 47.0507L367.748 47.5605ZM352.63 34.2231L351.904 34.9102L353.63 36.7364V34.2231H352.63ZM351.488 33.0146V32.0146H349.166L350.761 33.7017L351.488 33.0146ZM359.837 31.5425L359.033 30.9486L359.03 30.952L359.837 31.5425ZM359.991 26.269L359.123 26.7652L359.128 26.7742L359.991 26.269ZM351.488 24.5991L350.677 24.0136L349.532 25.5991H351.488V24.5991ZM352.63 23.0171H353.63V19.9245L351.82 22.4316L352.63 23.0171ZM361.859 48.5493L362.739 48.0744C362.244 47.157 361.646 46.0262 360.944 44.681L360.057 45.1436L359.171 45.6061C359.875 46.9563 360.478 48.0959 360.979 49.0242L361.859 48.5493ZM360.057 45.1436L360.95 44.6925C360.264 43.3354 359.57 41.9341 358.87 40.4885L357.97 40.9248L357.07 41.3611C357.775 42.8159 358.474 44.2271 359.165 45.5946L360.057 45.1436ZM357.97 40.9248L358.875 40.4994C358.189 39.0406 357.585 37.7156 357.062 36.5238L356.146 36.9258L355.23 37.3278C355.762 38.5383 356.373 39.8793 357.065 41.3502L357.97 40.9248ZM356.146 36.9258L355.892 37.893L358.485 38.5741L358.739 37.6069L358.993 36.6398L356.4 35.9586L356.146 36.9258ZM358.739 37.6069L358.58 36.6197C358.166 36.6864 357.643 36.7422 357.002 36.7849L357.069 37.7827L357.135 38.7805C357.813 38.7353 358.403 38.674 358.898 38.5942L358.739 37.6069ZM357.069 37.7827L357.001 36.785C356.371 36.828 355.838 36.8486 355.399 36.8486V37.8486V38.8486C355.897 38.8486 356.477 38.8254 357.137 38.7804L357.069 37.7827ZM355.399 37.8486V36.8486H351.07V37.8486V38.8486H355.399V37.8486ZM351.07 37.8486L351.57 38.7146L353.13 37.8137L352.63 36.9478L352.13 36.0818L350.57 36.9827L351.07 37.8486ZM352.63 36.9478H351.63V48H352.63H353.63V36.9478H352.63ZM352.63 48V47H346.72V48V49H352.63V48ZM346.72 48H347.72V19.7871H346.72H345.72V48H346.72ZM346.72 19.7871V20.7871H356.542V19.7871V18.7871H346.72V19.7871ZM356.542 19.7871V20.7871C358.41 20.7871 359.996 21.0593 361.32 21.5757L361.683 20.644L362.046 19.7124C360.441 19.0863 358.599 18.7871 356.542 18.7871V19.7871ZM361.683 20.644L361.32 21.5757C362.586 22.0696 363.557 22.8743 364.262 24.0068L365.111 23.4785L365.96 22.9502C365.024 21.446 363.71 20.3611 362.046 19.7124L361.683 20.644ZM365.111 23.4785L364.262 24.0068C364.948 25.1103 365.341 26.6909 365.341 28.8398H366.341H367.341C367.341 26.477 366.914 24.4834 365.96 22.9502L365.111 23.4785ZM366.341 28.8398H365.341C365.341 31.021 364.871 32.6084 364.046 33.7124L364.847 34.311L365.648 34.9096C366.815 33.3477 367.341 31.2876 367.341 28.8398H366.341ZM364.847 34.311L364.046 33.7124C363.192 34.8559 361.995 35.68 360.402 36.1672L360.694 37.1235L360.987 38.0798C362.938 37.4831 364.511 36.4321 365.648 34.9096L364.847 34.311ZM360.694 37.1235L361.568 37.6104L362.315 36.2701L361.441 35.7832L360.568 35.2963L359.821 36.6367L360.694 37.1235ZM361.441 35.7832L360.543 36.2234C360.912 36.9757 361.354 37.8588 361.868 38.8723L362.76 38.4199L363.652 37.9675C363.14 36.9595 362.703 36.0849 362.339 35.343L361.441 35.7832ZM362.76 38.4199L361.873 38.8825C362.401 39.8944 362.958 40.9575 363.545 42.0717L364.43 41.606L365.315 41.1402C364.729 40.0279 364.173 38.9669 363.646 37.9574L362.76 38.4199ZM364.43 41.606L363.552 42.0856C364.153 43.1848 364.739 44.2547 365.311 45.2954L366.188 44.814L367.064 44.3325C366.493 43.2931 365.907 42.2244 365.307 41.1263L364.43 41.606ZM366.188 44.814L365.311 45.2954C365.886 46.3424 366.412 47.2677 366.887 48.0703L367.748 47.5605L368.608 47.0507C368.146 46.2713 367.631 45.3656 367.064 44.3325L366.188 44.814ZM367.748 47.5605L367.582 46.5744L361.693 47.5631L361.859 48.5493L362.024 49.5355L367.913 48.5467L367.748 47.5605ZM352.63 34.2231L353.357 33.5361L352.214 32.3276L351.488 33.0146L350.761 33.7017L351.904 34.9102L352.63 34.2231ZM351.488 33.0146V34.0146H354.894V33.0146V32.0146H351.488V33.0146ZM354.894 33.0146V34.0146C356.129 34.0146 357.218 33.916 358.148 33.704L357.926 32.729L357.703 31.754C356.963 31.9228 356.032 32.0146 354.894 32.0146V33.0146ZM357.926 32.729L358.148 33.704C359.18 33.4686 360.042 32.957 360.644 32.133L359.837 31.5425L359.03 30.952C358.754 31.3292 358.341 31.6086 357.703 31.754L357.926 32.729ZM359.837 31.5425L360.642 32.1363C361.279 31.2727 361.519 30.0981 361.519 28.7739H360.519H359.519C359.519 29.9107 359.304 30.5818 359.033 30.9486L359.837 31.5425ZM360.519 28.7739H361.519C361.519 27.6145 361.331 26.5788 360.854 25.7639L359.991 26.269L359.128 26.7742C359.354 27.1605 359.519 27.7947 359.519 28.7739H360.519ZM359.991 26.269L360.859 25.7729C360.401 24.9702 359.738 24.3793 358.887 24.0427L358.519 24.9727L358.151 25.9026C358.56 26.064 358.879 26.3374 359.123 26.7652L359.991 26.269ZM358.519 24.9727L358.887 24.0427C358.112 23.7366 357.235 23.5991 356.278 23.5991V24.5991V25.5991C357.049 25.5991 357.666 25.7107 358.151 25.9026L358.519 24.9727ZM356.278 24.5991V23.5991H351.488V24.5991V25.5991H356.278V24.5991ZM351.488 24.5991L352.298 25.1846L353.441 23.6026L352.63 23.0171L351.82 22.4316L350.677 24.0136L351.488 24.5991ZM352.63 23.0171H351.63V34.2231H352.63H353.63V23.0171H352.63ZM371.769 48H370.769V49H371.769V48ZM371.769 19.7871V18.7871H370.769V19.7871H371.769ZM388.27 21.4351L387.714 22.266L387.717 22.2682L388.27 21.4351ZM386.49 33.2124L386.179 32.2619L383.126 33.2601L386.207 34.1713L386.49 33.2124ZM390.599 44.6382L389.765 44.0859L389.764 44.0884L390.599 44.6382ZM386.996 47.187L386.682 46.2375L386.679 46.2383L386.996 47.187ZM377.679 46.9893L376.88 47.5908L378.679 49.9794V46.9893H377.679ZM374.999 43.4297V42.4297H372.994L374.2 44.0313L374.999 43.4297ZM384.82 36.5962L384.16 37.3469L384.168 37.3539L384.176 37.3607L384.82 36.5962ZM374.999 35.6294L374.401 34.8278L371.985 36.6294H374.999V35.6294ZM377.679 33.6299H378.679V31.6364L377.081 32.8283L377.679 33.6299ZM377.679 32.7949L377.136 33.6343L378.679 34.6338V32.7949H377.679ZM374.999 31.0591V30.0591H371.614L374.455 31.8985L374.999 31.0591ZM384.007 30.2681L384.676 31.0114L384.677 31.0105L384.007 30.2681ZM374.999 24.3574L374.2 23.7558L372.994 25.3574H374.999V24.3574ZM377.679 20.7979H378.679V17.8077L376.88 20.1963L377.679 20.7979ZM371.769 48H372.769V19.7871H371.769H370.769V48H371.769ZM371.769 19.7871V20.7871H380.184V19.7871V18.7871H371.769V19.7871ZM380.184 19.7871V20.7871C383.887 20.7871 386.329 21.3391 387.714 22.266L388.27 21.4351L388.826 20.6042C386.929 19.3338 383.981 18.7871 380.184 18.7871V19.7871ZM388.27 21.4351L387.717 22.2682C389.021 23.134 389.753 24.5669 389.753 26.8184H390.753H391.753C391.753 24.0893 390.829 21.9334 388.823 20.6019L388.27 21.4351ZM390.753 26.8184H389.753C389.753 28.484 389.441 29.6482 388.93 30.4193L389.764 30.9712L390.598 31.5231C391.406 30.3019 391.753 28.6977 391.753 26.8184H390.753ZM389.764 30.9712L388.93 30.4193C388.432 31.1719 387.562 31.81 386.179 32.2619L386.49 33.2124L386.801 34.1629C388.466 33.6187 389.778 32.7626 390.598 31.5231L389.764 30.9712ZM386.49 33.2124L386.207 34.1713C387.817 34.6476 388.932 35.3822 389.652 36.3203C390.369 37.2553 390.764 38.4862 390.764 40.0898H391.764H392.764C392.764 38.1485 392.28 36.4608 391.239 35.1033C390.2 33.7489 388.68 32.8172 386.774 32.2535L386.49 33.2124ZM391.764 40.0898H390.764C390.764 41.8161 390.403 43.123 389.765 44.0859L390.599 44.6382L391.433 45.1905C392.348 43.8096 392.764 42.0842 392.764 40.0898H391.764ZM390.599 44.6382L389.764 44.0884C389.154 45.0148 388.163 45.7483 386.682 46.2375L386.996 47.187L387.309 48.1365C389.11 47.5417 390.521 46.576 391.434 45.188L390.599 44.6382ZM386.996 47.187L386.679 46.2383C385.195 46.7332 383.182 47 380.602 47V48V49C383.294 49 385.544 48.7248 387.312 48.1357L386.996 47.187ZM380.602 48V47H371.769V48V49H380.602V48ZM377.679 46.9893L378.478 46.3877L375.797 42.8281L374.999 43.4297L374.2 44.0313L376.88 47.5908L377.679 46.9893ZM374.999 43.4297V44.4297H381.261V43.4297V42.4297H374.999V43.4297ZM381.261 43.4297V44.4297C382.423 44.4297 383.444 44.2995 384.282 43.9965L383.941 43.0562L383.601 42.1158C383.062 42.3108 382.296 42.4297 381.261 42.4297V43.4297ZM383.941 43.0562L384.282 43.9965C385.167 43.6763 385.875 43.1212 386.328 42.317L385.458 41.8257L384.587 41.3344C384.396 41.6728 384.093 41.938 383.601 42.1158L383.941 43.0562ZM385.458 41.8257L386.328 42.317C386.766 41.5412 386.941 40.5816 386.941 39.5186H385.941H384.941C384.941 40.3891 384.793 40.9676 384.587 41.3344L385.458 41.8257ZM385.941 39.5186H386.941C386.941 38.0143 386.509 36.712 385.465 35.8317L384.82 36.5962L384.176 37.3607C384.626 37.7401 384.941 38.3861 384.941 39.5186H385.941ZM384.82 36.5962L385.481 35.8455C384.493 34.9764 383.114 34.6294 381.524 34.6294V35.6294V36.6294C382.864 36.6294 383.682 36.9269 384.16 37.3469L384.82 36.5962ZM381.524 35.6294V34.6294H374.999V35.6294V36.6294H381.524V35.6294ZM374.999 35.6294L375.596 36.431L378.277 34.4315L377.679 33.6299L377.081 32.8283L374.401 34.8278L374.999 35.6294ZM377.679 33.6299H376.679V46.9893H377.679H378.679V33.6299H377.679ZM377.679 32.7949L378.223 31.9555L375.542 30.2197L374.999 31.0591L374.455 31.8985L377.136 33.6343L377.679 32.7949ZM374.999 31.0591V32.0591H381.151V31.0591V30.0591H374.999V31.0591ZM381.151 31.0591V32.0591C382.562 32.0591 383.818 31.7843 384.676 31.0114L384.007 30.2681L383.338 29.5248C383.025 29.8066 382.377 30.0591 381.151 30.0591V31.0591ZM384.007 30.2681L384.677 31.0105C385.57 30.2047 385.908 29.011 385.908 27.6753H384.908H383.908C383.908 28.7126 383.646 29.2475 383.337 29.5257L384.007 30.2681ZM384.908 27.6753H385.908C385.908 26.3382 385.561 25.138 384.626 24.3582L383.985 25.1265L383.345 25.8947C383.64 26.1403 383.908 26.6394 383.908 27.6753H384.908ZM383.985 25.1265L384.626 24.3582C383.743 23.6231 382.476 23.3574 381.041 23.3574V24.3574V25.3574C382.301 25.3574 382.997 25.6045 383.345 25.8947L383.985 25.1265ZM381.041 24.3574V23.3574H374.999V24.3574V25.3574H381.041V24.3574ZM374.999 24.3574L375.797 24.959L378.478 21.3994L377.679 20.7979L376.88 20.1963L374.2 23.7558L374.999 24.3574ZM377.679 20.7979H376.679V32.7949H377.679H378.679V20.7979H377.679ZM399.959 46.9014L399.437 47.7541L399.44 47.7562L399.959 46.9014ZM396.356 42.1772L395.412 42.5087L395.415 42.5164L396.356 42.1772ZM412.528 20.7539L412.017 21.6134L412.02 21.6154L412.528 20.7539ZM416.241 42.1772L415.3 41.8401L415.298 41.8438L416.241 42.1772ZM410.99 28.1587L410.015 28.3843L410.018 28.3964L410.99 28.1587ZM409.364 25.1924L408.737 25.9718L408.746 25.9785L408.754 25.985L409.364 25.1924ZM403.255 25.1924L403.865 25.9851L403.875 25.9777L403.255 25.1924ZM401.607 28.1587L400.635 27.9234L400.634 27.9308L401.607 28.1587ZM403.211 42.4849L402.576 43.2568L402.583 43.2628L403.211 42.4849ZM406.31 48.3955V47.3955C403.838 47.3955 401.917 46.9199 400.478 46.0466L399.959 46.9014L399.44 47.7562C401.283 48.875 403.596 49.3955 406.31 49.3955V48.3955ZM399.959 46.9014L400.482 46.0487C399.086 45.1938 398.012 43.8221 397.297 41.8381L396.356 42.1772L395.415 42.5164C396.253 44.8391 397.581 46.6168 399.437 47.7541L399.959 46.9014ZM396.356 42.1772L397.299 41.8458C396.589 39.8237 396.213 37.135 396.213 33.7397H395.213H394.213C394.213 37.2586 394.6 40.1948 395.412 42.5087L396.356 42.1772ZM395.213 33.7397H396.213C396.213 30.3315 396.611 27.6762 397.356 25.725L396.422 25.3682L395.488 25.0114C394.622 27.2789 394.213 30.2047 394.213 33.7397H395.213ZM396.422 25.3682L397.356 25.725C398.096 23.7864 399.188 22.4468 400.599 21.6154L400.091 20.7539L399.584 19.8924C397.713 20.9946 396.359 22.7312 395.488 25.0114L396.422 25.3682ZM400.091 20.7539L400.599 21.6154C402.045 20.7636 403.928 20.3037 406.31 20.3037V19.3037V18.3037C403.681 18.3037 401.419 18.8106 399.584 19.8924L400.091 20.7539ZM406.31 19.3037V20.3037C408.707 20.3037 410.589 20.7642 412.017 21.6134L412.528 20.7539L413.039 19.8944C411.215 18.81 408.951 18.3037 406.31 18.3037V19.3037ZM412.528 20.7539L412.02 21.6154C413.431 22.4468 414.523 23.7864 415.263 25.725L416.197 25.3682L417.131 25.0114C416.261 22.7312 414.906 20.9946 413.036 19.8924L412.528 20.7539ZM416.197 25.3682L415.263 25.725C416.008 27.6762 416.406 30.3315 416.406 33.7397H417.406H418.406C418.406 30.2047 417.998 27.2789 417.131 25.0114L416.197 25.3682ZM417.406 33.7397H416.406C416.406 37.1336 416.023 39.8202 415.3 41.8401L416.241 42.1772L417.183 42.5144C418.012 40.1984 418.406 37.2599 418.406 33.7397H417.406ZM416.241 42.1772L415.298 41.8438C414.597 43.8254 413.531 45.1948 412.137 46.0487L412.66 46.9014L413.182 47.7541C415.04 46.6157 416.362 44.8358 417.184 42.5107L416.241 42.1772ZM412.66 46.9014L412.137 46.0487C410.716 46.9193 408.798 47.3955 406.31 47.3955V48.3955V49.3955C409.036 49.3955 411.351 48.8757 413.182 47.7541L412.66 46.9014ZM406.31 43.4077V44.4077C407.776 44.4077 409.062 44.0651 410.043 43.2568L409.408 42.4849L408.772 41.7129C408.259 42.135 407.48 42.4077 406.31 42.4077V43.4077ZM409.408 42.4849L410.043 43.2568C411.027 42.4471 411.638 41.1966 411.986 39.676L411.012 39.4526L410.037 39.2293C409.741 40.5212 409.283 41.2922 408.772 41.7129L409.408 42.4849ZM411.012 39.4526L411.986 39.676C412.333 38.1652 412.495 36.1983 412.495 33.8057H411.495H410.495C410.495 36.1298 410.335 37.9276 410.037 39.2293L411.012 39.4526ZM411.495 33.8057H412.495C412.495 31.3844 412.326 29.4107 411.961 27.921L410.99 28.1587L410.018 28.3964C410.328 29.6606 410.495 31.4515 410.495 33.8057H411.495ZM410.99 28.1587L411.964 27.9331C411.614 26.4218 410.989 25.1812 409.973 24.3998L409.364 25.1924L408.754 25.985C409.262 26.3754 409.721 27.1124 410.016 28.3843L410.99 28.1587ZM409.364 25.1924L409.99 24.413C409.013 23.6272 407.748 23.2915 406.31 23.2915V24.2915V25.2915C407.449 25.2915 408.221 25.5564 408.737 25.9718L409.364 25.1924ZM406.31 24.2915V23.2915C404.881 23.2915 403.623 23.6292 402.636 24.4071L403.255 25.1924L403.875 25.9777C404.411 25.5544 405.189 25.2915 406.31 25.2915V24.2915ZM403.255 25.1924L402.646 24.3998C401.633 25.1785 401.001 26.4145 400.636 27.9234L401.607 28.1587L402.579 28.394C402.888 27.1197 403.354 26.3781 403.865 25.985L403.255 25.1924ZM401.607 28.1587L400.634 27.9308C400.286 29.4161 400.124 31.386 400.124 33.8057H401.124H402.124C402.124 31.4499 402.284 29.6552 402.581 28.3866L401.607 28.1587ZM401.124 33.8057H400.124C400.124 36.1983 400.286 38.1652 400.633 39.676L401.607 39.4526L402.582 39.2293C402.284 37.9276 402.124 36.1298 402.124 33.8057H401.124ZM401.607 39.4526L400.633 39.676C400.981 41.1966 401.593 42.4471 402.576 43.2568L403.211 42.4849L403.847 41.7129C403.336 41.2922 402.878 40.5212 402.582 39.2293L401.607 39.4526ZM403.211 42.4849L402.583 43.2628C403.574 44.0631 404.853 44.4077 406.31 44.4077V43.4077V42.4077C405.159 42.4077 404.372 42.137 403.84 41.7069L403.211 42.4849ZM425.953 48.4834L425.806 49.4726L426.507 49.5765L426.838 48.9498L425.953 48.4834ZM420.174 47.6265L419.301 47.1391L418.595 48.4033L420.028 48.6156L420.174 47.6265ZM428.392 32.9048L429.383 33.0369L427.519 32.4174L428.392 32.9048ZM428.216 34.2231L427.343 34.7106L428.81 37.3376L429.208 34.3553L428.216 34.2231ZM420.328 20.0947L420.178 19.1061L418.752 19.323L419.455 20.5822L420.328 20.0947ZM426.107 19.2158L426.993 18.7515L426.662 18.12L425.957 18.2272L426.107 19.2158ZM433.006 32.3774V33.3774H434.66L433.892 31.9132L433.006 32.3774ZM430.084 32.3774L429.199 31.912L428.428 33.3774H430.084V32.3774ZM437.005 19.2158L437.155 18.227L436.451 18.1209L436.12 18.7504L437.005 19.2158ZM442.828 20.0947L443.696 20.5919L444.422 19.324L442.977 19.1059L442.828 20.0947ZM434.72 34.2451L433.729 34.3773L434.119 37.3052L435.588 34.7423L434.72 34.2451ZM434.544 32.9268L435.413 32.4309L433.553 33.0589L434.544 32.9268ZM442.938 47.6265L443.085 48.6156L444.531 48.4003L443.806 47.1306L442.938 47.6265ZM437.181 48.4834L436.297 48.9509L436.628 49.5767L437.328 49.4725L437.181 48.4834ZM429.93 34.7725V33.7725H428.27L429.046 35.24L429.93 34.7725ZM433.182 34.7725L434.067 35.2388L434.84 33.7725H433.182V34.7725ZM425.953 48.4834L426.1 47.4942L420.321 46.6373L420.174 47.6265L420.028 48.6156L425.806 49.4726L425.953 48.4834ZM420.174 47.6265L421.047 48.1139L429.265 33.3922L428.392 32.9048L427.519 32.4174L419.301 47.1391L420.174 47.6265ZM428.392 32.9048L427.401 32.7726L427.225 34.091L428.216 34.2231L429.208 34.3553L429.383 33.0369L428.392 32.9048ZM428.216 34.2231L429.089 33.7357L421.201 19.6072L420.328 20.0947L419.455 20.5822L427.343 34.7106L428.216 34.2231ZM420.328 20.0947L420.478 21.0834L426.257 20.2045L426.107 19.2158L425.957 18.2272L420.178 19.1061L420.328 20.0947ZM426.107 19.2158L425.221 19.6801L432.121 32.8417L433.006 32.3774L433.892 31.9132L426.993 18.7515L426.107 19.2158ZM433.006 32.3774V31.3774H430.084V32.3774V33.3774H433.006V32.3774ZM430.084 32.3774L430.969 32.8429L437.89 19.6813L437.005 19.2158L436.12 18.7504L429.199 31.912L430.084 32.3774ZM437.005 19.2158L436.856 20.2046L442.679 21.0835L442.828 20.0947L442.977 19.1059L437.155 18.227L437.005 19.2158ZM442.828 20.0947L441.96 19.5976L433.853 33.748L434.72 34.2451L435.588 34.7423L443.696 20.5919L442.828 20.0947ZM434.72 34.2451L435.711 34.113L435.536 32.7946L434.544 32.9268L433.553 33.0589L433.729 34.3773L434.72 34.2451ZM434.544 32.9268L433.676 33.4226L442.07 48.1223L442.938 47.6265L443.806 47.1306L435.413 32.4309L434.544 32.9268ZM442.938 47.6265L442.791 46.6374L437.034 47.4943L437.181 48.4834L437.328 49.4725L443.085 48.6156L442.938 47.6265ZM437.181 48.4834L438.065 48.0159L430.814 34.305L429.93 34.7725L429.046 35.24L436.297 48.9509L437.181 48.4834ZM429.93 34.7725V35.7725H433.182V34.7725V33.7725H429.93V34.7725ZM433.182 34.7725L432.298 34.3061L425.069 48.017L425.953 48.4834L426.838 48.9498L434.067 35.2388L433.182 34.7725ZM446.827 48H445.827V49H446.827V48ZM446.827 19.7871V18.7871H445.827V19.7871H446.827ZM460.802 20.5781L460.48 21.525L460.483 21.5259L460.802 20.5781ZM464.603 23.061L463.844 23.7118L463.849 23.7175L464.603 23.061ZM466.756 27.4336L465.787 27.6799L465.79 27.6893L466.756 27.4336ZM466.8 40.1558L465.83 39.9151L465.828 39.9227L466.8 40.1558ZM464.735 44.5723L465.507 45.2076L465.511 45.2029L464.735 44.5723ZM461 47.165L461.343 48.1043L461.348 48.1025L461 47.165ZM452.738 46.7695L452.07 47.5136L453.738 49.0113V46.7695H452.738ZM448.651 43.1001V42.1001H446.04L447.983 43.8442L448.651 43.1001ZM458.297 42.5947L458.683 43.5173L458.691 43.5139L458.297 42.5947ZM460.23 40.9688L459.396 40.4179L459.388 40.4297L460.23 40.9688ZM461.241 38.1123L460.256 37.9399L460.254 37.9519L461.241 38.1123ZM448.651 24.687L447.983 23.9429L446.04 25.687H448.651V24.687ZM452.738 21.0176H453.738V18.7758L452.07 20.2735L452.738 21.0176ZM446.827 48H447.827V19.7871H446.827H445.827V48H446.827ZM446.827 19.7871V20.7871H455.177V19.7871V18.7871H446.827V19.7871ZM455.177 19.7871V20.7871C457.299 20.7871 459.059 21.0425 460.48 21.525L460.802 20.5781L461.123 19.6312C459.439 19.0591 457.449 18.7871 455.177 18.7871V19.7871ZM460.802 20.5781L460.483 21.5259C461.899 22.0025 463.007 22.7359 463.844 23.7118L464.603 23.061L465.362 22.4102C464.265 21.1303 462.839 20.2085 461.121 19.6303L460.802 20.5781ZM464.603 23.061L463.849 23.7175C464.706 24.703 465.363 26.0097 465.787 27.6799L466.756 27.4336L467.726 27.1873C467.242 25.2833 466.463 23.6749 465.357 22.4046L464.603 23.061ZM466.756 27.4336L465.79 27.6893C466.23 29.3538 466.459 31.4086 466.459 33.8716H467.459H468.459C468.459 31.2955 468.22 29.0583 467.723 27.1779L466.756 27.4336ZM467.459 33.8716H466.459C466.459 36.2319 466.245 38.242 465.83 39.9151L466.8 40.1558L467.771 40.3964C468.235 38.5246 468.459 36.3453 468.459 33.8716H467.459ZM466.8 40.1558L465.828 39.9227C465.431 41.5793 464.799 42.9075 463.959 43.9417L464.735 44.5723L465.511 45.2029C466.575 43.8933 467.32 42.2771 467.773 40.3888L466.8 40.1558ZM464.735 44.5723L463.963 43.9369C463.133 44.945 462.04 45.7118 460.651 46.2276L461 47.165L461.348 48.1025C463.035 47.4757 464.432 46.5139 465.507 45.2076L464.735 44.5723ZM461 47.165L460.656 46.2258C459.274 46.7308 457.537 47 455.418 47V48V49C457.694 49 459.678 48.7126 461.343 48.1043L461 47.165ZM455.418 48V47H446.827V48V49H455.418V48ZM452.738 46.7695L453.406 46.0254L449.319 42.356L448.651 43.1001L447.983 43.8442L452.07 47.5136L452.738 46.7695ZM448.651 43.1001V44.1001H455.265V43.1001V42.1001H448.651V43.1001ZM455.265 43.1001V44.1001C456.565 44.1001 457.717 43.9212 458.683 43.5173L458.297 42.5947L457.911 41.6721C457.265 41.9421 456.396 42.1001 455.265 42.1001V43.1001ZM458.297 42.5947L458.691 43.5139C459.69 43.0856 460.493 42.4136 461.073 41.5078L460.23 40.9688L459.388 40.4297C459.03 40.9887 458.544 41.4007 457.903 41.6756L458.297 42.5947ZM460.23 40.9688L461.065 41.5196C461.649 40.6354 462.023 39.5375 462.228 38.2727L461.241 38.1123L460.254 37.9519C460.079 39.0308 459.779 39.8372 459.396 40.4179L460.23 40.9688ZM461.241 38.1123L462.226 38.2847C462.444 37.0387 462.549 35.5641 462.549 33.8716H461.549H460.549C460.549 35.4896 460.448 36.8422 460.256 37.9399L461.241 38.1123ZM461.549 33.8716H462.549C462.549 32.1343 462.437 30.6329 462.202 29.3807L461.219 29.5649L460.236 29.7492C460.441 30.8408 460.549 32.2105 460.549 33.8716H461.549ZM461.219 29.5649L462.202 29.3807C461.965 28.1178 461.566 27.028 460.964 26.1604L460.143 26.7305L459.321 27.3006C459.715 27.8685 460.034 28.6683 460.236 29.7492L461.219 29.5649ZM460.143 26.7305L460.964 26.1604C460.349 25.274 459.52 24.6299 458.503 24.2375L458.143 25.1704L457.783 26.1033C458.436 26.3554 458.94 26.7514 459.321 27.3006L460.143 26.7305ZM458.143 25.1704L458.503 24.2375C457.518 23.8572 456.347 23.687 455.023 23.687V24.687V25.687C456.19 25.687 457.098 25.8391 457.783 26.1033L458.143 25.1704ZM455.023 24.687V23.687H448.651V24.687V25.687H455.023V24.687ZM448.651 24.687L449.319 25.4311L453.406 21.7617L452.738 21.0176L452.07 20.2735L447.983 23.9429L448.651 24.687ZM452.738 21.0176H451.738V46.7695H452.738H453.738V21.0176H452.738Z" fill="black" mask="url(#path-4-outside-1_0_1)"/>
</g>
<defs>
<filter id="filter0_d_0_1" x="232.076" y="17.8077" width="240.383" height="40.1717" filterUnits="userSpaceOnUse" color-interpolation-filters="sRGB">
<feFlood flood-opacity="0" result="BackgroundImageFix"/>
<feColorMatrix in="SourceAlpha" type="matrix" values="0 0 0 0 0 0 0 0 0 0 0 0 0 0 0 0 0 0 127 0" result="hardAlpha"/>
<feOffset dy="4"/>
<feGaussianBlur stdDeviation="2"/>
<feComposite in2="hardAlpha" operator="out"/>
<feColorMatrix type="matrix" values="0 0 0 0 0 0 0 0 0 0 0 0 0 0 0 0 0 0 0.81 0"/>
<feBlend mode="normal" in2="BackgroundImageFix" result="effect1_dropShadow_0_1"/>
<feBlend mode="normal" in="SourceGraphic" in2="effect1_dropShadow_0_1" result="shape"/>
</filter>
</defs>
</svg>
